HIERARCHY
ROOT RootJoint
{
    OFFSET   0.000000   0.000000   0.000000
    CHANNELS 6 Xposition Yposition Zposition Xrotation Yrotation Zrotation
    JOINT pelvis_lowerback
    {
        OFFSET   0.000000   0.093605   0.000000
        CHANNELS 3 Xrotation Yrotation Zrotation
        JOINT lowerback_torso
        {
            OFFSET   0.000000   0.100000   0.000000
            CHANNELS 3 Xrotation Yrotation Zrotation
            JOINT torso_head
            {
                OFFSET   0.000000   0.282350   0.000000
                CHANNELS 3 Xrotation Yrotation Zrotation
                End Site
                {
                    OFFSET   0.000000   0.192650   0.000000
                }
            }
            JOINT rTorso_Clavicle
            {
                OFFSET  -0.001000   0.157500   0.000000
                CHANNELS 3 Xrotation Yrotation Zrotation
                JOINT rShoulder
                {
                    OFFSET  -0.117647   0.000000   0.000000
                    CHANNELS 3 Xrotation Yrotation Zrotation
                    JOINT rElbow
                    {
                        OFFSET  -0.245000   0.000000   0.000000
                        CHANNELS 3 Xrotation Yrotation Zrotation
                        JOINT rWrist
                        {
                            OFFSET  -0.240000   0.000000   0.000000
                            CHANNELS 3 Xrotation Yrotation Zrotation
                            End Site
                            {
                                OFFSET  -0.116353  -0.002500   0.000000
                            }
                        }
                    }
                }
            }
            JOINT lTorso_Clavicle
            {
                OFFSET   0.001000   0.157500   0.000000
                CHANNELS 3 Xrotation Yrotation Zrotation
                JOINT lShoulder
                {
                    OFFSET   0.117647   0.000000   0.000000
                    CHANNELS 3 Xrotation Yrotation Zrotation
                    JOINT lElbow
                    {
                        OFFSET   0.245000   0.000000   0.000000
                        CHANNELS 3 Xrotation Yrotation Zrotation
                        JOINT lWrist
                        {
                            OFFSET   0.240000   0.000000   0.000000
                            CHANNELS 3 Xrotation Yrotation Zrotation
                            End Site
                            {
                                OFFSET   0.116353  -0.002500   0.000000
                            }
                        }
                    }
                }
            }
        }
    }
    JOINT rHip
    {
        OFFSET  -0.100000  -0.051395   0.000000
        CHANNELS 3 Xrotation Yrotation Zrotation
        JOINT rKnee
        {
            OFFSET   0.000000  -0.410000   0.000000
            CHANNELS 3 Xrotation Yrotation Zrotation
            JOINT rAnkle
            {
                OFFSET   0.000000  -0.390000   0.000000
                CHANNELS 3 Xrotation Yrotation Zrotation
                JOINT rToeJoint
                {
                    OFFSET   0.000000  -0.050000   0.130000
                    CHANNELS 3 Xrotation Yrotation Zrotation
                    End Site
                    {
                        OFFSET  -0.010000   0.002000   0.060000
                    }
                }
            }
        }
    }
    JOINT lHip
    {
        OFFSET   0.100000  -0.051395   0.000000
        CHANNELS 3 Xrotation Yrotation Zrotation
        JOINT lKnee
        {
            OFFSET   0.000000  -0.410000   0.000000
            CHANNELS 3 Xrotation Yrotation Zrotation
            JOINT lAnkle
            {
                OFFSET   0.000000  -0.390000   0.000000
                CHANNELS 3 Xrotation Yrotation Zrotation
                JOINT lToeJoint
                {
                    OFFSET   0.000000  -0.050000   0.130000
                    CHANNELS 3 Xrotation Yrotation Zrotation
                    End Site
                    {
                        OFFSET   0.010000   0.002000   0.060000
                    }
                }
            }
        }
    }
}
MOTION
Frames: 15
Frame Time:   0.008333
 -2.376719   0.925631   3.975860   0.000000   0.000000   0.000000   0.000000   0.000000   0.000000   0.000000   0.000000   0.000000   0.000000   0.000000   0.000000   0.000000   0.000000   0.000000   0.000000   0.000000   0.000000   0.000000   0.000000   0.000000   0.000000   0.000000   0.000000   0.000000   0.000000   0.000000   0.000000   0.000000   0.000000   0.000000   0.000000   0.000000   0.000000   0.000000   0.000000   0.000000   0.000000   0.000000   0.000000   0.000000   0.000000   0.000000   0.000000   0.000000   0.000000   0.000000   0.000000   0.000000   0.000000   0.000000   0.000000   0.000000   0.000000   0.000000   0.000000   0.000000   0.000000   0.000000   0.000000
 -2.376560   0.925346   3.974841   0.797828  -0.569388  -0.145740  -0.584216   0.357027   0.344165  -0.180703  -0.065191  -0.194465  -0.085019   0.366804  -0.017739   0.239369  -0.778474  -0.941782   0.701626   0.322439   2.725706   0.057600   3.621688  -0.032446  -0.007852  -1.323214  -1.872672   0.071755   0.901447   0.621997  -0.543052   0.852250  -2.094535   0.045911  -3.599123  -0.013179  -0.152068   0.577005   1.940544  -1.787503  -0.441921   0.034542   2.963168   0.002433  -0.026124  -1.781214  -0.725827   0.736480  -0.306223   0.001589   0.004634  -1.178973   0.528038   0.259435   0.164160  -0.000146  -0.000054  -1.170349   0.867488   0.335963   0.596321  -0.002201   0.004344
 -2.376325   0.924935   3.973877   1.516787  -1.175124  -0.295277  -1.109336   0.731605   0.704788  -0.336799  -0.051594  -0.367681  -0.137883   0.710971  -0.039913   0.462363  -1.498665  -1.420679   1.338057   0.735043   5.648799   0.132072   7.357552  -0.057394   0.022087  -1.691285  -3.176592   0.129603   1.859653   0.819915  -1.028176   1.698165  -4.372820   0.096499  -7.033231  -0.023395  -0.291695   0.304035   3.366040  -3.315213  -0.913961  -0.048896   6.058662   0.005399  -0.050291  -3.421873  -1.441340   1.400488  -0.605572   0.002259   0.008420  -2.451655   1.024630   0.632888   0.239168  -0.000240  -0.000106  -2.282054   1.683246   0.672813   1.066181  -0.003663   0.006512
 -2.375812   0.925163   3.973401   2.256887  -1.858132  -0.334106  -1.716393   1.165672   1.010521  -0.519134   0.051760  -0.547324  -0.175907   1.031908  -0.066155   0.676155  -2.141099  -1.498668   1.906301   1.177385   8.632672   0.211281  11.111204  -0.072422   0.056743  -1.785594  -3.958339   0.186594   2.815716   0.657877  -1.444343   2.544655  -6.734777   0.142774 -10.231975  -0.033474  -0.416810  -0.082622   4.300584  -4.602903  -1.347504  -0.354334   9.017042   0.008408  -0.070167  -4.938425  -2.129201   1.999987  -0.847513   0.002175   0.010632  -3.516420   1.549379   0.714341   0.950589  -0.000082  -0.000992  -2.936755   2.510124   0.873933   1.409207  -0.003345   0.007291
 -2.375380   0.925581   3.972986   3.068206  -2.486473  -0.418794  -2.360121   1.598465   1.355591  -0.753324   0.192095  -0.676085  -0.224832   1.330627  -0.090012   0.889458  -2.724704  -1.330225   2.415836   1.630099  11.597065   0.285346  14.868067  -0.082447   0.080303  -1.810871  -4.294057   0.247187   3.740203   0.291163  -1.790777   3.376387  -9.099554   0.178340 -13.206656  -0.041576  -0.544168  -0.419609   4.827071  -5.729672  -1.751007  -0.672592  11.812335   0.010654  -0.082942  -6.347105  -2.788559   2.539643  -1.067316   0.001796   0.011869  -4.531911   1.996969   0.858817   1.432403  -0.000001  -0.001480  -3.694355   3.239116   1.134278   1.815079  -0.003309   0.007914
 -2.375048   0.926063   3.972485   3.925780  -3.025426  -0.525906  -2.997494   2.020454   1.711751  -1.007668   0.350573  -0.764209  -0.281127   1.609132  -0.111529   1.107274  -3.256081  -0.995285   2.873998   2.087931  14.490485   0.350495  18.625055  -0.090991   0.092147  -1.823588  -4.320698   0.313317   4.619910  -0.196710  -2.072441   4.180919 -11.411347   0.202238 -15.974183  -0.047033  -0.675593  -0.689225   5.089108  -6.694897  -2.122028  -1.020993  14.450002   0.012758  -0.089438  -7.657147  -3.417180   3.025876  -1.270648   0.001252   0.012374  -5.561122   2.400221   1.047257   1.806840   0.000020  -0.001547  -4.424907   3.910091   1.394428   2.173946  -0.003192   0.008166
 -2.374820   0.926565   3.971837   4.817122  -3.470572  -0.641056  -3.610818   2.434585   2.066165  -1.262650   0.525211  -0.823141  -0.339556   1.868845  -0.131919   1.328829  -3.728597  -0.552239   3.283421   2.557560  17.281212   0.402371  22.282634  -0.099297   0.099544  -1.793162  -4.139768   0.384723   5.447341  -0.751644  -2.296567   4.949157 -13.639343   0.215476 -18.551289  -0.050099  -0.808888  -0.905196   5.184587  -7.508984  -2.460638  -1.404166  16.938682   0.014951  -0.091182  -8.875772  -4.014861   3.464048  -1.456881   0.000634   0.012313  -6.615407   2.766737   1.261992   2.110026   0.000013  -0.001361  -5.112874   4.530634   1.648514   2.500211  -0.003032   0.008250
 -2.374318   0.926017   3.971390   5.222352  -3.820212  -0.344582  -3.796780   2.952719   1.914849  -1.247998   0.673428  -0.896802  -0.607839   2.109221  -0.196226   1.569953  -4.247175  -0.423802   3.966843   3.157412  20.036684   0.444554  26.068555  -0.127188   0.165654  -1.790176  -3.553264   0.243399   6.299603  -0.948813  -3.017876   5.634453 -15.794454   0.218433 -21.462674  -0.071100  -0.947411  -0.762571   4.920399  -7.682793  -3.048970  -2.287083  18.864049   0.015028  -0.092139  -7.655440  -4.859656   4.039661  -1.477306   0.000391   0.010232  -7.461200   3.425405   0.895018   3.789283   0.002603   0.003036  -6.356706   5.405143   2.234453   2.535763  -0.002542   0.006972
 -2.374059   0.924981   3.970701   5.506434  -3.863787  -0.005847  -3.880010   3.372192   1.685305  -1.160258   0.749623  -1.014240  -0.848060   2.334159  -0.269997   1.800848  -4.719057  -0.347693   4.578742   3.760773  22.575016   0.469144  29.729570  -0.151155   0.250986  -1.695686  -2.941645   0.088669   7.021014  -1.047488  -3.696053   6.233533 -17.738908   0.209190 -24.217760  -0.086609  -1.077664  -0.815783   4.745194  -7.950452  -3.281063  -2.737368  20.140632   0.010481  -0.077833  -7.091140  -5.126089   4.647561  -8.145493   0.017963   0.053529  -8.224898   4.049060   0.449643   5.558055   0.005413   0.010506  -7.529128   6.205453   2.810543   2.594683  -0.002230   0.006280
 -2.373614   0.923519   3.969956   5.642310  -3.843525   0.387335  -3.864475   3.796425   1.446590  -1.013170   0.833615  -1.168305  -1.058827   2.546583  -0.348714   2.002647  -5.117931  -0.336527   5.110608   4.374363  24.896362   0.477543  33.161070  -0.168544   0.342812  -1.515213  -2.410188  -0.064636   7.656035  -1.105121  -4.321277   6.785482 -19.525805   0.192239 -26.802762  -0.098095  -1.193172  -0.960099   4.635448  -8.472579  -3.605315  -3.143449  21.135620   0.005970  -0.065500  -6.573841  -5.607686   5.119913 -14.308015   0.023533   0.099326  -8.776300   4.658387  -0.103927   7.287186   0.008641   0.016506  -8.611982   6.947903   3.356763   2.651303  -0.001944   0.005680
 -2.373005   0.921841   3.969415   5.648347  -3.761737   0.784153  -3.809629   4.206446   1.232398  -0.834964   0.923534  -1.322377  -1.242755   2.745857  -0.422264   2.180404  -5.467283  -0.363777   5.574795   4.977765  27.028663   0.474188  36.369739  -0.178795   0.435782  -1.303580  -1.960302  -0.211070   8.235120  -1.144886  -4.893060   7.309238 -21.178029   0.170691 -29.220451  -0.107628  -1.298666  -1.138405   4.566307  -9.108501  -4.004451  -3.551456  22.173445   0.001948  -0.055854  -6.120108  -6.200092   5.500786 -20.156178   0.014791   0.139905  -9.161127   5.219271  -0.654129   8.913700   0.011026   0.020722  -9.634425   7.620358   3.897888   2.713494  -0.001739   0.005227
 -2.372094   0.921109   3.969316   5.580790  -3.431631   0.907851  -3.807167   4.520717   1.281553  -0.685631   0.955541  -1.379335  -1.407162   2.930079  -0.484618   2.352362  -5.821090  -0.376775   5.995939   5.529349  28.998403   0.464096  39.346787  -0.182324   0.525477  -1.155413  -1.599507  -0.348078   8.764360  -1.270309  -5.406199   7.809402 -22.764648   0.147881 -31.480441  -0.117319  -1.394187  -1.339167   4.490692  -9.729952  -4.316058  -3.802898  23.480432   0.000361  -0.045329  -6.339333  -6.727933   5.543734 -20.448471   0.010552   0.113486  -9.443844   5.744090  -1.030995  10.474706   0.014333   0.026849 -10.591526   8.252178   4.391073   2.784456  -0.001537   0.005081
 -2.370999   0.920789   3.969608   5.471929  -2.874707   0.988436  -3.852712   4.771972   1.321324  -0.572931   0.943386  -1.392182  -1.566033   3.101703  -0.528172   2.529301  -6.179648  -0.384310   6.386705   6.040894  30.847841   0.448041  42.121021  -0.182188   0.606061  -1.047934  -1.229219  -0.477810   9.247134  -1.358243  -5.873038   8.282283 -24.233504   0.123116 -33.591781  -0.126704  -1.486740  -1.541854   4.395148 -10.268421  -4.614688  -4.066238  24.780744   0.000540  -0.034412  -6.214201  -7.203602   5.709254 -21.368773   0.005513   0.093752  -9.640100   6.238206  -1.452091  11.952974   0.018150   0.033396 -11.491498   8.833968   4.861153   2.847748  -0.001317   0.004942
 -2.369857   0.920694   3.970142   5.239451  -2.406901   1.035737  -3.772184   4.919287   1.316619  -0.493875   1.033929  -1.365364  -1.583716   3.065154  -0.510126   2.604967  -6.431219  -0.470243   6.755519   6.534505  32.463348   0.424549  44.826238  -0.179233   0.572732  -0.955377  -0.622368  -0.457377   9.950638  -1.258954  -6.315422   8.729373 -25.627558   0.096395 -36.073172  -0.140494  -1.678414  -1.496298   4.219437 -10.919511  -4.848063  -4.326473  26.506855   0.001073  -0.025708  -5.654162  -7.577004   5.887693 -23.267789  -0.002361   0.080440  -9.309444   6.273895  -1.885753  12.504752   0.016663   0.028591 -12.147184   9.110793   5.373716   2.738160  -0.000893   0.003213
 -2.368710   0.920623   3.970770   5.001591  -1.876544   1.070869  -3.708115   5.032502   1.279571  -0.416628   1.123361  -1.339215  -1.587872   3.018681  -0.491218   2.654972  -6.660216  -0.634650   7.073534   7.007820  33.917333   0.395723  47.365201  -0.174762   0.540269  -0.793823  -0.101125  -0.442192  10.631721  -1.052646  -6.730488   9.155559 -26.852477   0.067432 -38.409133  -0.151538  -1.853504  -1.585577   4.113804 -11.573621  -5.111979  -4.591490  28.238689   0.001954  -0.018414  -4.927620  -7.961229   6.120900 -25.374038  -0.009036   0.070180  -8.899667   6.266539  -2.312782  12.946897   0.015015   0.024477 -12.767703   9.353978   5.853932   2.618286  -0.000556   0.001770
